<svg width="58" height="58" viewBox="0 0 58 58" fill="none" xmlns="http://www.w3.org/2000/svg">
<path d="M18.2805 9.01818C16.226 9.56364 15.3352 10.3636 14.2443 11.5455C13.2563 12.6158 13.0884 14.1336 13.0655 14.4104C13.0631 14.4398 13.0623 14.4693 13.0622 14.4989L13.0078 28.5273C12.9714 41.0545 13.0633 42.4545 13.2623 43.6182C13.6078 45.6364 14.5169 46.8182 15.7896 47.8182C16.8501 48.6514 18.0243 48.9166 18.3863 48.9819C18.4615 48.9954 18.537 49 18.6133 49H29.1351H39.669C39.7493 49 39.8289 48.9949 39.9077 48.9793C40.2653 48.9082 41.3767 48.6268 42.4261 47.7273C43.2443 47.026 44.2987 46.0182 44.9714 43.8545C45.3169 42.7636 45.3351 42.1455 45.3351 33.8V26.7273C45.3351 25.7231 44.521 24.9091 43.5169 24.9091H39.3896C34.2078 24.8909 33.6078 24.8727 32.5169 24.7273C31.3351 24.4545 31.1937 24.4 30.2442 23.5455C29.3726 22.7611 29.2585 21.5785 29.2457 21.3895C29.2444 21.3717 29.2441 21.3547 29.2439 21.3369L29.1896 15.0364L29.1507 10.5364C29.1421 9.53579 28.3265 8.73025 27.3259 8.73392L24.1896 8.74546C20.5169 8.74546 18.9896 8.81818 18.2805 9.01818Z" fill="white"/>
<path d="M32.4264 14.8364V20.5578C32.4264 20.5738 32.4253 20.5897 32.4245 20.6056C32.4201 20.6922 32.426 20.9994 32.6992 21.2727C32.9855 21.559 33.3809 21.6237 33.4649 21.6345C33.4758 21.6359 33.4864 21.6364 33.4974 21.6364H39.2809H44.1849C44.5088 21.6364 44.6711 21.2447 44.442 21.0156L38.79 15.3636C36.2925 12.866 34.0705 10.6727 33.0311 9.6491C32.8006 9.4221 32.4116 9.58693 32.4133 9.91045C32.4187 10.9412 32.4264 12.777 32.4264 14.8364Z" fill="white"/>
</svg>
