<svg width="58" height="58" viewBox="0 0 58 58" fill="none" xmlns="http://www.w3.org/2000/svg">
<path d="M45.2111 38.0374C40.3957 47.5374 29.4528 49.9752 29.4528 49.9752H21.5737C21.5737 49.9752 30.7656 46.0357 32.9543 44.2848C36.8935 41.1334 39.4355 37.2649 40.3957 32.4661C42.0598 24.1492 37.4343 19.8477 33.392 18.8965C25.951 17.1455 18.9469 24.587 22.8869 31.1529C18.6555 30.2774 11.5057 29.4019 11.0682 25.4623C10.5281 20.5981 13.1288 14.1442 21.2906 10.5965C30 6.81089 40.9296 10.1203 45.2111 16.7078C49.325 23.0374 48.2026 32.1357 45.2111 38.0374Z" fill="white"/>
<path d="M18.4863 26.9787L21.7394 31.9842L27.6569 32.773L22.6513 36.0261L21.8625 41.9435L18.6094 36.938L12.692 36.1492L17.6976 32.8961L18.4863 26.9787Z" stroke="white" stroke-width="2.12858"/>
</svg>
