<svg width="81" height="81" viewBox="0 0 81 81" fill="none" xmlns="http://www.w3.org/2000/svg">
<path d="M59.1969 19.3479C52.3851 21.9773 21.644 33.7479 17.2498 35.4243C13.8616 36.7126 12.9616 37.2243 12.5557 38.0361C12.291 38.6008 12.291 38.7067 12.5204 39.1302C12.6792 39.3773 13.0322 39.7302 13.3322 39.9067C13.6322 40.0831 16.0675 40.9126 18.7145 41.742C21.3792 42.5714 24.291 43.4714 25.2087 43.7714C26.1263 44.0537 26.9734 44.2831 27.1145 44.2831C27.2557 44.2831 34.0145 40.1184 42.1322 35.0361C50.2498 29.9537 57.1675 25.6655 57.5028 25.5067C58.1204 25.1714 58.9322 25.242 58.9322 25.6302C58.9322 25.9302 57.8734 26.9361 52.6675 31.5949C42.3792 40.789 36.3616 46.189 35.444 47.1067L34.4381 48.0773L34.3322 50.0184C34.1734 52.6831 33.7145 59.1773 33.6087 60.2361L33.5381 61.0831L34.191 60.9596C35.0381 60.8008 35.3734 60.5361 38.5498 57.5184C40.0145 56.1243 41.4792 54.7126 41.8322 54.3949L42.4675 53.7949L48.891 58.5067C52.4204 61.1008 55.6322 63.3596 56.0204 63.5361C57.7145 64.3126 59.1263 63.7655 59.7792 62.0714C59.9734 61.5596 60.7498 58.2773 61.491 54.7831C62.2145 51.289 63.3439 46.0479 63.9616 43.1361C67.4381 26.9008 68.6734 20.989 68.7616 20.1596C68.9028 18.9243 68.444 17.7243 67.6851 17.2655C66.591 16.5949 65.8851 16.7714 59.1969 19.3479Z" fill="url(#paint0_linear_47_136)"/>
<defs>
<linearGradient id="paint0_linear_47_136" x1="40.5698" y1="63.8823" x2="40.5698" y2="16.9323" gradientUnits="userSpaceOnUse">
<stop stop-color="#C62CB4"/>
<stop offset="1" stop-color="#FB6655"/>
</linearGradient>
</defs>
</svg>
