<svg width="495" height="158" viewBox="0 0 495 158" fill="none" xmlns="http://www.w3.org/2000/svg">
<g clip-path="url(#clip0_47_23)">
<path opacity="0.48" d="M0 231.494C82.5613 75.4375 165.123 55.4659 247.684 171.58C330.245 287.693 412.806 307.665 495.368 231.494" stroke="#222525" stroke-width="2" stroke-linecap="round"/>
<path opacity="0.77" d="M0 223.831C82.5613 72.883 165.123 55.4659 247.684 171.58C330.245 287.693 412.806 305.11 495.368 223.831" stroke="#222525" stroke-width="2" stroke-linecap="round"/>
<path opacity="0.28" d="M0 216.167C82.5613 70.3284 165.123 55.4659 247.684 171.58C330.245 287.693 412.806 302.556 495.368 216.167" stroke="#222525" stroke-width="2" stroke-linecap="round"/>
<path opacity="0.41" d="M0 208.504C82.5613 67.7739 165.123 55.4659 247.684 171.58C330.245 287.693 412.806 300.001 495.368 208.504" stroke="#222525" stroke-width="2" stroke-linecap="round"/>
<path opacity="0.95" d="M0 200.84C82.5613 65.2194 165.123 55.4659 247.684 171.58C330.245 287.693 412.806 297.447 495.368 200.84" stroke="#222525" stroke-width="2" stroke-linecap="round"/>
<path opacity="0.5" d="M0 193.177C82.5613 62.6649 165.123 55.4659 247.684 171.58C330.245 287.693 412.806 294.892 495.368 193.177" stroke="#222525" stroke-width="2" stroke-linecap="round"/>
<path opacity="0.23" d="M0 185.513C82.5613 60.1104 165.123 55.4659 247.684 171.58C330.245 287.693 412.806 292.338 495.368 185.513" stroke="#222525" stroke-width="2" stroke-linecap="round"/>
<path opacity="0.48" d="M0 177.85C82.5613 57.5559 165.123 55.4659 247.684 171.58C330.245 287.693 412.806 289.783 495.368 177.85" stroke="#222525" stroke-width="2" stroke-linecap="round"/>
<path opacity="0.67" d="M0 170.186C82.5613 55.0014 165.123 55.4659 247.684 171.58C330.245 287.693 412.806 287.229 495.368 170.186" stroke="#222525" stroke-width="2" stroke-linecap="round"/>
<path opacity="0.59" d="M0 162.523C82.5613 52.4469 165.123 55.4659 247.684 171.58C330.245 287.693 412.806 284.674 495.368 162.523" stroke="#222525" stroke-width="2" stroke-linecap="round"/>
<path opacity="0.32" d="M0 154.859C82.5613 49.8924 165.123 55.4659 247.684 171.58C330.245 287.693 412.806 282.12 495.368 154.859" stroke="#222525" stroke-width="2" stroke-linecap="round"/>
<path opacity="0.13" d="M0 147.196C82.5613 47.3379 165.123 55.4659 247.684 171.58C330.245 287.693 412.806 279.565 495.368 147.196" stroke="#222525" stroke-width="2" stroke-linecap="round"/>
<path opacity="0.85" d="M0 139.532C82.5613 44.7834 165.123 55.4659 247.684 171.58C330.245 287.693 412.806 277.011 495.368 139.532" stroke="#222525" stroke-width="2" stroke-linecap="round"/>
<path opacity="0.57" d="M0 131.869C82.5613 42.229 165.123 55.4659 247.684 171.58C330.245 287.693 412.806 274.456 495.368 131.869" stroke="#222525" stroke-width="2" stroke-linecap="round"/>
<path opacity="0.96" d="M0 124.205C82.5613 39.6744 165.123 55.4659 247.684 171.58C330.245 287.693 412.806 271.902 495.368 124.205" stroke="#222525" stroke-width="2" stroke-linecap="round"/>
<path opacity="0.73" d="M0 116.542C82.5613 37.1199 165.123 55.4659 247.684 171.58C330.245 287.693 412.806 269.347 495.368 116.542" stroke="#222525" stroke-width="2" stroke-linecap="round"/>
<path opacity="0.48" d="M0 108.878C82.5613 34.5654 165.123 55.4659 247.684 171.58C330.245 287.693 412.806 266.793 495.368 108.878" stroke="#222525" stroke-width="2" stroke-linecap="round"/>
<path opacity="0.07" d="M0 101.215C82.5613 32.0109 165.123 55.4659 247.684 171.58C330.245 287.693 412.806 264.238 495.368 101.215" stroke="#222525" stroke-width="2" stroke-linecap="round"/>
<path opacity="0.36" d="M0 93.5512C82.5613 29.4564 165.123 55.4659 247.684 171.58C330.245 287.693 412.806 261.684 495.368 93.5512" stroke="#222525" stroke-width="2" stroke-linecap="round"/>
<path opacity="0.66" d="M0 85.8877C82.5613 26.9019 165.123 55.4659 247.684 171.58C330.245 287.693 412.806 259.129 495.368 85.8877" stroke="#222525" stroke-width="2" stroke-linecap="round"/>
<path opacity="0.84" d="M0 78.2242C82.5613 24.3474 165.123 55.4659 247.684 171.58C330.245 287.693 412.806 256.575 495.368 78.2242" stroke="#222525" stroke-width="2" stroke-linecap="round"/>
<path opacity="0.32" d="M0 70.5607C82.5613 21.7929 165.123 55.4659 247.684 171.58C330.245 287.693 412.806 254.02 495.368 70.5607" stroke="#222525" stroke-width="2" stroke-linecap="round"/>
<path opacity="0.53" d="M0 62.8972C82.5613 19.2384 165.123 55.4659 247.684 171.58C330.245 287.693 412.806 251.466 495.368 62.8972" stroke="#222525" stroke-width="2" stroke-linecap="round"/>
<path opacity="0.3" d="M0 55.2337C82.5613 16.6839 165.123 55.4659 247.684 171.58C330.245 287.693 412.806 248.911 495.368 55.2337" stroke="#222525" stroke-width="2" stroke-linecap="round"/>
<path opacity="0.77" d="M0 47.5702C82.5613 14.1294 165.123 55.4659 247.684 171.58C330.245 287.693 412.806 246.357 495.368 47.5702" stroke="#222525" stroke-width="2" stroke-linecap="round"/>
</g>
<defs>
<clipPath id="clip0_47_23">
<rect width="495" height="316" fill="white"/>
</clipPath>
</defs>
</svg>
