<svg width="27" height="27" viewBox="0 0 27 27" fill="none" xmlns="http://www.w3.org/2000/svg">
<g id="Autorenew" clip-path="url(#clip0_483_522)">
<path id="Vector" d="M13.5 6.75V10.125L18 5.625L13.5 1.125V4.5C8.5275 4.5 4.5 8.5275 4.5 13.5C4.5 15.2662 5.0175 16.9088 5.895 18.2925L7.5375 16.65C7.03125 15.7163 6.75 14.6362 6.75 13.5C6.75 9.77625 9.77625 6.75 13.5 6.75ZM21.105 8.7075L19.4625 10.35C19.9575 11.295 20.25 12.3638 20.25 13.5C20.25 17.2237 17.2238 20.25 13.5 20.25V16.875L9 21.375L13.5 25.875V22.5C18.4725 22.5 22.5 18.4725 22.5 13.5C22.5 11.7338 21.9825 10.0912 21.105 8.7075Z" fill="#CED2D2"/>
</g>
<defs>
<clipPath id="clip0_483_522">
<rect width="27" height="27" fill="white"/>
</clipPath>
</defs>
</svg>
