<svg width="28" height="28" viewBox="0 0 28 28" fill="none" xmlns="http://www.w3.org/2000/svg">
<g id="image 64 (traced)">
<g id="Black">
<path id="Vector" d="M12.5073 3.66602C11.7286 3.76692 10.4032 4.08644 9.65763 4.3471C8.26592 4.83479 6.46 5.8522 6.01266 6.39875C5.40793 7.13028 5.91325 8.20656 6.85763 8.18974C7.18071 8.18133 7.33811 8.11407 7.80201 7.78614C10.8008 5.6504 14.9097 5.28043 18.2813 6.8528C18.6044 7.00416 19.2174 7.35731 19.6482 7.63479C20.0707 7.91226 20.518 8.17293 20.6422 8.19815C20.9488 8.27383 21.3795 8.11407 21.6695 7.81136C21.8766 7.59274 21.9097 7.49184 21.9097 7.10506C21.9097 6.56692 21.7357 6.33989 20.8411 5.74289C19.5488 4.87683 17.9334 4.21256 16.318 3.86782C15.473 3.68284 13.2612 3.57353 12.5073 3.66602Z" fill="#6C6C6C"/>
<path id="Vector_2" d="M2.40188 11.284C1.80543 11.696 1.74744 12.2678 2.21135 13.1086C2.56756 13.7645 3.13088 14.5969 3.57821 15.1435C3.75218 15.3621 3.89301 15.5723 3.89301 15.6059C3.89301 15.648 3.34626 16.2366 2.67525 16.9261L1.44922 18.1621V18.6666C1.44922 19.1207 1.47407 19.1963 1.72259 19.4402C1.96283 19.6924 2.03738 19.7177 2.48472 19.7177H2.98176L4.19951 18.4732C4.8788 17.7921 5.4504 17.2372 5.48354 17.2372C5.51667 17.2372 5.87289 17.481 6.27052 17.7669C6.67644 18.0612 7.2149 18.4312 7.47999 18.5909C7.73679 18.7423 7.95218 18.902 7.95218 18.9441C7.95218 18.9777 7.59596 19.7345 7.15691 20.6089C6.41963 22.0888 6.36164 22.2402 6.40307 22.5933C6.46105 23.1567 6.8007 23.4762 7.39715 23.5267C7.81963 23.5603 7.86934 23.5435 8.14271 23.2828C8.32496 23.1062 8.71431 22.4336 9.19478 21.4834C9.60898 20.651 9.98176 19.9363 10.0232 19.8942C10.0646 19.8606 10.5037 19.9279 11.009 20.0456C11.5226 20.1717 12.1273 20.2978 12.3676 20.3231C12.6078 20.3483 12.8232 20.4156 12.8563 20.466C12.8895 20.5165 12.9226 21.3657 12.9226 22.3495C12.9226 24.3927 12.9557 24.5105 13.5439 24.8047C13.9664 25.015 14.0327 25.015 14.4551 24.8047C15.0433 24.5189 15.0764 24.3927 15.0764 22.3831C15.0764 21.4077 15.1013 20.5585 15.1261 20.4828C15.1593 20.3987 15.2753 20.3483 15.4244 20.3483C15.6315 20.3483 17.2551 20.012 17.6611 19.8774C17.7687 19.8438 17.9676 20.1885 18.6303 21.5171C19.2019 22.6438 19.5415 23.2408 19.6906 23.3333C20.3948 23.8041 21.3226 23.3837 21.4303 22.5429C21.4634 22.2738 21.364 22.0132 20.6682 20.6174C20.2208 19.7261 19.8729 18.9861 19.8895 18.9693C19.906 18.9609 20.2125 18.7675 20.5687 18.5489C20.925 18.3387 21.4634 17.9687 21.7616 17.7417C22.0599 17.5062 22.3332 17.3213 22.3581 17.3213C22.3912 17.3213 22.8386 17.7585 23.3605 18.2966C24.5699 19.5327 24.8599 19.7597 25.2824 19.7597C26.1273 19.7597 26.6824 18.902 26.3096 18.1789C26.2433 18.0528 25.7048 17.4642 25.1084 16.8588C24.5119 16.2618 24.0232 15.7321 24.0232 15.6984C24.0232 15.6564 24.1889 15.4294 24.396 15.1855C24.8847 14.6053 25.622 13.4786 25.9368 12.8228C26.235 12.2005 26.2102 11.8222 25.8457 11.4102C25.6551 11.1915 25.5474 11.1495 25.1332 11.1159C24.5202 11.0738 24.3214 11.2168 23.8409 12.0492C22.6149 14.2017 20.5439 16.1609 18.4729 17.1363C13.2374 19.6083 7.23975 17.4726 4.14981 12.0408C3.76046 11.3513 3.54508 11.1831 3.03975 11.1243C2.76638 11.0906 2.62555 11.1243 2.40188 11.284Z" fill="#6C6C6C"/>
</g>
</g>
</svg>
