<svg width="32" height="32" viewBox="0 0 32 32" fill="none" xmlns="http://www.w3.org/2000/svg">
<path d="M3.39995 11.1321C3.25709 11.2969 3.23805 11.7624 3.23805 15.7963C3.23805 20.6933 3.22852 20.6254 3.79995 21.0327C4.06662 21.2363 4.17138 21.2363 8.54281 21.2363C12.7619 21.2363 13.0285 21.2266 13.1714 21.0618C13.2666 20.9648 13.3333 20.7612 13.3333 20.606C13.3333 20.3733 13.038 20.0242 11.619 18.5697C10.6761 17.6097 9.90471 16.7854 9.90471 16.7466C9.90471 16.5915 11.2761 15.6509 12.1428 15.2145C15.9428 13.3333 20.4285 14.0315 23.4857 16.9891C24.2857 17.7648 24.6761 18.2788 25.4285 19.5297C26 20.4897 26.438 20.8484 27.038 20.8484C27.819 20.8484 28.5523 20.16 28.6476 19.3357C28.7333 18.4921 27.2857 16.223 25.6571 14.6521C23.1428 12.2278 20 10.9575 16.5238 10.9575C13.438 10.9575 10.5714 12.0048 8.15233 14.0024L7.59995 14.4678L5.86662 12.7127C4.3809 11.2097 4.08567 10.9575 3.83805 10.9575C3.68567 10.9575 3.48567 11.0351 3.39995 11.1321Z" fill="#CED2D2"/>
</svg>
