<svg width="32" height="32" viewBox="0 0 32 32" fill="none" xmlns="http://www.w3.org/2000/svg">
<path d="M6.84917 6.76774C6.0127 7.01619 5.08869 7.98017 4.86498 8.84476C4.79689 9.10315 4.76771 11.6373 4.78717 16.3181L4.81635 23.4038C4.81635 23.4038 4.86505 24.3706 5.35126 24.8448C5.83748 25.3189 6.3238 25.4907 6.8589 25.4907H15.9531H25.0473C25.4363 25.4907 26.117 25.4232 26.6034 24.7454C27.0899 24.0676 27.0899 23.4038 27.0899 23.4038V16.0994V8.79507C27.0899 8.79507 27.0898 8.04973 26.6034 7.45346C26.1171 6.85718 25.5822 6.70811 25.0473 6.70811L16.099 6.68824C10.8954 6.6783 7.02425 6.70811 6.84917 6.76774ZM12.5878 11.9354C12.7823 12.0646 13.0644 12.3528 13.2103 12.5715C13.434 12.9094 13.4729 13.0684 13.4729 13.6249C13.4729 14.1715 13.434 14.3404 13.2103 14.6684C12.7628 15.3143 12.3252 15.5528 11.586 15.5528C11.0413 15.5528 10.8856 15.5131 10.5549 15.2845C9.913 14.8274 9.67957 14.3901 9.67957 13.605C9.67957 13.0187 9.71847 12.8795 9.97136 12.5118C10.5841 11.6274 11.7708 11.369 12.5878 11.9354ZM20.0966 16.2882C20.3203 16.3976 21.5458 17.441 22.8492 18.6336L25.1932 20.7901V21.8336V22.7081C25.1932 22.7081 25.2419 23.0559 25.0473 23.3044C24.8528 23.5528 24.5318 23.5528 24.5318 23.5528H16.0018C8.2206 23.5528 7.45221 23.5429 7.19932 23.3839C6.81999 23.1553 6.713 22.8671 6.713 22.0323V21.3168L8.23033 19.9752C10.0686 18.3354 10.5452 18.0472 11.2553 18.1168C11.8388 18.1764 12.189 18.405 13.3951 19.4684L14.2024 20.1839L14.6109 19.7963C14.8443 19.5876 15.7489 18.7528 16.6145 17.9479C17.4899 17.1429 18.3945 16.3976 18.6084 16.2882C19.1239 16.0497 19.5908 16.0497 20.0966 16.2882Z" fill="#CED2D2"/>
</svg>
