<svg width="32" height="32" viewBox="0 0 32 32" fill="none" xmlns="http://www.w3.org/2000/svg">
<path d="M9.08144 7.33686C8.29774 7.57152 7.5457 8.21292 7.21322 8.92472C7.05489 9.26107 7.03906 9.41751 7.03906 10.8567V12.4211H11.0763H15.1136L15.1373 9.81643L15.1532 7.21954L12.2875 7.22736C10.1422 7.22736 9.32685 7.25865 9.08144 7.33686Z" fill="#CED2D2"/>
<path d="M16.7541 9.81643L16.7779 12.4211H20.8151H24.8524L24.8761 11.021C24.892 9.77732 24.8761 9.56612 24.7336 9.13592C24.5041 8.46323 23.8945 7.79836 23.2137 7.48548L22.715 7.25865L19.7227 7.23518L16.7383 7.21171L16.7541 9.81643Z" fill="#CED2D2"/>
<path d="M7 16.6058V19.187H11.0768H15.1537V16.6058V14.0245H11.0768H7V16.6058Z" fill="#CED2D2"/>
<path d="M16.7383 16.6058V19.187H20.8151H24.892V16.6058V14.0245H20.8151H16.7383V16.6058Z" fill="#CED2D2"/>
<path d="M7.05541 20.8062C7.02375 20.8297 7 21.4789 7 22.2376C7 23.4344 7.02375 23.6769 7.16624 24.0993C7.38789 24.7563 7.94203 25.3586 8.64657 25.6949L9.17696 25.9531L12.1614 25.9765L15.1537 26L15.1379 23.3953L15.1141 20.7906L11.1085 20.7671C8.90781 20.7593 7.07916 20.7749 7.05541 20.8062Z" fill="#CED2D2"/>
<path d="M16.7937 20.8062C16.762 20.8297 16.7383 22.0108 16.7383 23.4266V26L19.7306 25.9765L22.715 25.9531L23.2137 25.7262C23.8945 25.4134 24.5041 24.7485 24.7336 24.0758C24.8761 23.6456 24.892 23.4344 24.8761 22.1907L24.8524 20.7906L20.8468 20.7671C18.6461 20.7593 16.8174 20.7749 16.7937 20.8062Z" fill="#CED2D2"/>
</svg>
