<svg width="32" height="32" viewBox="0 0 32 32" fill="none" xmlns="http://www.w3.org/2000/svg">
<path d="M4.57382 5.65388C4.02869 6.19901 4 6.60068 4 13.7447V21.2618L5.80753 19.4829L7.61506 17.7041H13.2672C20.6408 17.7041 20.067 18.2492 20.067 11.3921C20.067 6.60068 20.0383 6.19901 19.4931 5.65388C18.948 5.10875 18.5463 5.08006 12.0335 5.08006C5.52062 5.08006 5.11895 5.10875 4.57382 5.65388Z" fill="#CED2D2"/>
<path d="M22.3096 13.6587C22.0514 18.9091 20.6743 19.9707 14.1327 19.9994H10.8906V21.147C10.8906 21.9217 11.0915 22.4955 11.4644 22.8685C12.0096 23.4136 12.4112 23.4423 17.6904 23.4423H23.3425L25.15 25.2212L26.9576 27V19.483C26.9576 10.6174 27.015 10.8183 24.1172 10.8183H22.4531L22.3096 13.6587Z" fill="#CED2D2"/>
</svg>
