<svg width="32" height="32" viewBox="0 0 32 32" fill="none" xmlns="http://www.w3.org/2000/svg">
<path d="M4.6 5.68006C4.03 6.25006 4 6.67005 4 14.14V22L5.88999 20.14L7.77999 18.28H13.69C21.3999 18.28 20.7999 18.85 20.7999 11.68C20.7999 6.67005 20.7699 6.25006 20.1999 5.68006C19.6299 5.11006 19.2099 5.08006 12.4 5.08006C5.58999 5.08006 5.17 5.11006 4.6 5.68006Z" fill="#CED2D2"/>
<path d="M23.1394 14.0501C22.8694 19.54 21.4294 20.65 14.5895 20.68H11.1995V21.88C11.1995 22.69 11.4095 23.29 11.7995 23.68C12.3695 24.25 12.7895 24.28 18.3094 24.28H24.2194L26.1094 26.14L27.9994 28V20.14C27.9994 10.8701 28.0594 11.0801 25.0294 11.0801H23.2894L23.1394 14.0501Z" fill="#CED2D2"/>
<circle cx="28" cy="9" r="4" fill="#C92FAD"/>
</svg>
