<svg width="18" height="18" viewBox="0 0 18 18" fill="none" xmlns="http://www.w3.org/2000/svg">
<g clip-path="url(#clip0_483_447)">
<path d="M8.25 14.4475C8.25 15.2725 7.575 15.9475 6.75 15.9475C5.925 15.9475 5.25 15.2725 5.25 14.4475C5.25 13.6225 5.925 12.9475 6.75 12.9475C7.575 12.9475 8.25 13.6225 8.25 14.4475ZM6.75 7.5001C5.925 7.5001 5.25 8.1751 5.25 9.0001C5.25 9.8251 5.925 10.5001 6.75 10.5001C7.575 10.5001 8.25 9.8251 8.25 9.0001C8.25 8.1751 7.575 7.5001 6.75 7.5001ZM6.75 2.05273C5.925 2.05273 5.25 2.72773 5.25 3.55273C5.25 4.37773 5.925 5.05273 6.75 5.05273C7.575 5.05273 8.25 4.37773 8.25 3.55273C8.25 2.72773 7.575 2.05273 6.75 2.05273ZM11.25 5.05273C12.075 5.05273 12.75 4.37773 12.75 3.55273C12.75 2.72773 12.075 2.05273 11.25 2.05273C10.425 2.05273 9.75 2.72773 9.75 3.55273C9.75 4.37773 10.425 5.05273 11.25 5.05273ZM11.25 7.5001C10.425 7.5001 9.75 8.1751 9.75 9.0001C9.75 9.8251 10.425 10.5001 11.25 10.5001C12.075 10.5001 12.75 9.8251 12.75 9.0001C12.75 8.1751 12.075 7.5001 11.25 7.5001ZM11.25 12.9475C10.425 12.9475 9.75 13.6225 9.75 14.4475C9.75 15.2725 10.425 15.9475 11.25 15.9475C12.075 15.9475 12.75 15.2725 12.75 14.4475C12.75 13.6225 12.075 12.9475 11.25 12.9475Z" fill="#7B7B7B"/>
</g>
<defs>
<clipPath id="clip0_483_447">
<rect width="18" height="18" fill="white"/>
</clipPath>
</defs>
</svg>
