<svg width="32" height="32" viewBox="0 0 32 32" fill="none" xmlns="http://www.w3.org/2000/svg">
<path d="M18.0903 6.28396C17.992 6.35222 16.7397 7.5934 15.3155 9.03936L12.7188 11.6645L16.4512 15.4376L20.1775 19.2046L22.8601 16.4926C24.3335 14.997 25.5551 13.7062 25.5797 13.6317C25.6779 13.3028 25.5674 13.1104 24.9044 12.4402C24.2659 11.7948 24.2537 11.7886 23.9651 11.7886C23.695 11.7886 23.6029 11.8444 22.6084 12.5333C22.0191 12.9367 21.5587 13.2283 21.5894 13.1787C21.6201 13.129 21.9393 12.645 22.2954 12.0989C22.6576 11.5527 22.9706 11.0315 22.9952 10.9384C23.0198 10.8329 23.0013 10.6839 22.9461 10.566C22.9031 10.4543 22.3261 9.8213 21.6692 9.16348C20.5703 8.06504 20.4598 7.97195 20.2573 7.97195C20.1406 7.97195 19.938 8.0154 19.8153 8.06504C19.6925 8.11469 19.5943 8.15192 19.5943 8.13331C19.5943 8.12089 19.6372 7.99057 19.6925 7.84163C19.8398 7.41342 19.7723 7.25207 19.2321 6.70595C18.8331 6.30878 18.7164 6.2219 18.5138 6.19707C18.3419 6.17225 18.2192 6.19707 18.0903 6.28396Z" fill="#CED2D2"/>
<path d="M10.8988 13.5138C10.0823 14.3454 9.97184 14.5191 10.0516 14.8418C10.0762 14.9473 10.4261 15.3631 10.9356 15.8844C11.4022 16.3623 11.8381 16.8525 11.8994 16.9704C12.1327 17.4235 11.9915 18.1496 11.6048 18.4971C11.5311 18.5716 11.0216 18.9129 10.4814 19.2666C9.05715 20.1851 7.53471 21.2215 7.06816 21.5876C6.56477 21.9848 6.38061 22.1958 6.16575 22.6612C6.02456 22.9715 6 23.1019 6 23.6107C6 24.1444 6.01842 24.2375 6.19644 24.6161C6.442 25.1436 6.84716 25.5532 7.36897 25.8014C7.74344 25.9814 7.83552 26 8.36346 26C8.86685 26 8.99576 25.9752 9.30271 25.8324C9.76312 25.6152 9.97184 25.4291 10.3647 24.9202C10.7269 24.4485 11.7521 22.9095 12.6607 21.4697C13.0106 20.9236 13.3482 20.4085 13.4219 20.334C13.7657 19.9431 14.4839 19.8003 14.932 20.0362C15.0487 20.0982 15.5521 20.5512 16.0432 21.0415C17.2464 22.2392 17.1911 22.2392 18.4312 20.9794L19.1985 20.1975L15.4845 16.443C13.4403 14.3764 11.7582 12.6884 11.7398 12.6884C11.7214 12.6884 11.3408 13.0607 10.8988 13.5138ZM8.90982 22.7916C9.20448 23.0088 9.30884 23.2198 9.30884 23.5735C9.30884 23.9955 9.10012 24.2996 8.71338 24.4485C7.98285 24.7278 7.25847 23.9955 7.53471 23.257C7.63908 22.9901 7.90918 22.7233 8.1486 22.6612C8.35118 22.6054 8.75021 22.6737 8.90982 22.7916Z" fill="#CED2D2"/>
</svg>
