<svg width="32" height="32" viewBox="0 0 32 32" fill="none" xmlns="http://www.w3.org/2000/svg">
<path d="M4 16.1225C4 24.785 4.0075 25.2275 4.135 25.4675C4.21 25.61 4.39 25.79 4.5325 25.865C4.7725 25.9925 5.2975 26 16.39 26H27.3594C27.7132 26 28 25.7132 28 25.3594V24.9875V24.6156C28 24.2618 27.7132 23.975 27.3594 23.975H17.0125H6.66563C6.31182 23.975 6.025 23.6882 6.025 23.3344V15.5V7.66562C6.025 7.31182 5.73818 7.025 5.38438 7.025H5.0125H4.64062C4.28682 7.025 4 7.31182 4 7.66562V16.1225Z" fill="#CED2D2"/>
<path d="M22.4652 7.175C21.9777 7.475 22.0002 7.0775 22.0002 15.425V22.3594C22.0002 22.7132 22.287 23 22.6408 23H24.5127H26.3833C26.7376 23 27.0246 22.7124 27.0239 22.3581L27.0102 15.3275C26.9877 7.94 26.9802 7.655 26.8452 7.4525C26.5752 7.0475 26.4402 7.025 24.4977 7.025C22.8402 7.025 22.6977 7.04 22.4652 7.175Z" fill="#CED2D2"/>
<path d="M15.5709 11.1125C15.4359 11.1725 15.2559 11.33 15.1734 11.465C15.0234 11.705 15.0234 11.8325 15.0234 17.3525V22.3594C15.0234 22.7132 15.3103 23 15.6641 23H17.4984H19.3328C19.6866 23 19.9734 22.7132 19.9734 22.3594V17.3525C19.9734 11.825 19.9734 11.705 19.8234 11.465C19.5609 11.045 19.3509 11 17.4834 11C16.2159 11.0075 15.7509 11.03 15.5709 11.1125Z" fill="#CED2D2"/>
<path d="M8.69656 15.05C8.39656 15.1475 8.14156 15.4025 8.05156 15.7175C8.00656 15.8825 7.97656 17.405 7.97656 19.49V22.3594C7.97656 22.7132 8.26338 23 8.61719 23H10.4891H12.3645C12.7199 23 13.0073 22.7108 13.0051 22.3555L12.9866 19.295L12.9656 15.8388C12.9646 15.6788 12.9038 15.5249 12.795 15.4074L12.7766 15.3875C12.4316 15.005 12.2441 14.975 10.5116 14.9825C9.63406 14.9825 8.81656 15.02 8.69656 15.05Z" fill="#CED2D2"/>
</svg>
