<svg width="32" height="32" viewBox="0 0 32 32" fill="none" xmlns="http://www.w3.org/2000/svg">
<path d="M9.67219 5.52454C7.88419 5.96971 6.57148 7.29014 6.14146 9.08591C5.95285 9.87817 5.95285 10.5271 6.14146 11.3193C6.5413 12.9793 7.62768 14.1714 9.31761 14.7826C9.57411 14.9184 10.1399 14.9863 10.8189 14.9863C11.5356 14.9863 12.0436 14.8807 12.3127 14.7826C13.1199 14.4883 13.6631 14.1563 14.2139 13.598C14.7721 13.0472 15.1041 12.5039 15.3983 11.6966C15.5794 11.2137 15.602 10.7685 15.602 10.2026C15.602 9.63673 15.5794 8.9652 15.3983 8.46721C14.9429 7.2147 13.8744 5.9952 11.9355 5.52454C11.1584 5.33591 10.4342 5.34345 9.67219 5.52454Z" fill="#CED2D2"/>
<path d="M17.7722 9.15458C18.157 10.2934 18.0664 11.9312 17.7269 12.9499C16.8283 15.6462 14.3731 17.3563 11.6015 17.3563C10.6962 17.3563 10.1467 17.2737 9.39872 17.0243C9.29433 16.9908 9.1875 17.0686 9.1875 17.1783V20.0123V21.7778C9.1875 22.4862 9.76183 23.0605 10.4703 23.0605H11.7825H13.6336C14.0896 23.0605 14.5114 22.8184 14.7413 22.4246L14.8679 22.2079C15.1394 21.7477 15.8938 20.4423 16.5501 19.3256C17.1989 18.2014 18.1418 16.5942 18.6322 15.7416C19.13 14.889 19.726 13.8628 19.9598 13.4554C20.1937 13.0555 20.42 12.731 20.4653 12.7461C20.503 12.7612 20.8274 13.2592 21.1744 13.8628C21.9589 15.2134 22.7434 16.549 23.264 17.4393C23.3784 17.63 23.6713 17.5489 23.6713 17.3265V13.3422V9.85639C23.6713 9.14792 23.097 8.57359 22.3885 8.57359H20.6237H18.1892C17.8881 8.57359 17.6758 8.86924 17.7722 9.15458Z" fill="#CED2D2"/>
<path d="M15.3047 26.2987C15.1294 26.6001 15.3465 26.9783 15.6952 26.979L25.2092 26.9984C25.5593 26.9991 25.7777 26.6193 25.601 26.3171L20.8246 18.1482C20.6495 17.8488 20.2166 17.8494 20.0423 18.1492L15.3047 26.2987Z" fill="#CED2D2"/>
</svg>
