<svg width="18" height="18" viewBox="0 0 18 18" fill="none" xmlns="http://www.w3.org/2000/svg">
<path d="M12.657 2.2502L11.9258 3.0002L13.4633 4.5377L15.0008 6.0752L15.7508 5.34395C16.8008 4.3127 16.7633 3.9002 15.4133 2.56895C14.082 1.25644 13.6695 1.2002 12.657 2.2502Z" fill="#7B7B7B"/>
<path d="M7.25625 7.65C5.325 9.58125 3.75 11.2125 3.75 11.2687C3.75 11.3438 4.0125 11.4375 4.3125 11.5125C4.7625 11.5875 4.9125 11.7375 4.9875 12.1687C5.08125 12.6 5.25 12.7875 5.75625 12.9562C6.24375 13.1062 6.4125 13.2937 6.50625 13.7062C6.5625 14.0062 6.65625 14.25 6.73125 14.25C6.7875 14.25 8.45625 12.6562 10.4063 10.6875L13.9688 7.125L12.4688 5.625C11.6438 4.8 10.9313 4.125 10.875 4.125C10.8188 4.125 9.1875 5.7 7.25625 7.65Z" fill="#7B7B7B"/>
<path d="M2.45794 13.9313C2.17669 15.525 2.19544 15.75 2.57044 15.75C3.18919 15.75 5.25169 15.3375 5.25169 15.2063C5.25169 15.0563 2.94544 12.75 2.77669 12.75C2.72044 12.75 2.57044 13.275 2.45794 13.9313Z" fill="#7B7B7B"/>
</svg>
