<svg width="15" height="15" viewBox="0 0 15 15" fill="none" xmlns="http://www.w3.org/2000/svg">
<path id="+" d="M8.79747 5.26033C8.79747 5.81262 9.24518 6.26033 9.79747 6.26033H14C14.5523 6.26033 15 6.70805 15 7.26033V7.77066C15 8.32295 14.5523 8.77066 14 8.77066H9.79747C9.24518 8.77066 8.79747 9.21838 8.79747 9.77066V14C8.79747 14.5523 8.34975 15 7.79747 15H7.20253C6.65025 15 6.20253 14.5523 6.20253 14V9.77066C6.20253 9.21838 5.75482 8.77066 5.20253 8.77066H1C0.447716 8.77066 0 8.32295 0 7.77066V7.26033C0 6.70805 0.447715 6.26033 1 6.26033H5.20253C5.75482 6.26033 6.20253 5.81262 6.20253 5.26033V1C6.20253 0.447715 6.65025 0 7.20253 0H7.79747C8.34975 0 8.79747 0.447715 8.79747 1V5.26033Z" fill="#CED2D2"/>
</svg>
