<svg width="34" height="34" viewBox="0 0 34 34" fill="none" xmlns="http://www.w3.org/2000/svg">
<path d="M16.59 0C7.43 0 0 7.43 0 16.59C0 25.75 7.43 33.18 16.59 33.18C25.75 33.18 33.18 25.75 33.18 16.59C33.18 7.43 25.75 0 16.59 0ZM24.5 10.79C24.45 11.46 24.07 13.81 23.69 16.35C23.11 19.95 22.49 23.88 22.49 23.88C22.49 23.88 22.39 24.98 21.58 25.17C20.77 25.36 19.42 24.5 19.18 24.31C18.99 24.17 15.58 22.01 14.34 20.95C14 20.66 13.62 20.09 14.39 19.42C16.12 17.84 18.18 15.87 19.42 14.63C20 14.05 20.57 12.71 18.17 14.34C14.77 16.69 11.41 18.89 11.41 18.89C11.41 18.89 10.64 19.37 9.2 18.94C7.76 18.51 6.08 17.93 6.08 17.93C6.08 17.93 4.93 17.21 6.9 16.44C6.9 16.44 15.19 13.04 18.07 11.84C19.17 11.36 22.91 9.83 22.91 9.83C22.91 9.83 24.64 9.16 24.5 10.79Z" fill="white"/>
</svg>
