<svg width="33" height="33" viewBox="0 0 33 33" fill="none" xmlns="http://www.w3.org/2000/svg">
<path fill-rule="evenodd" clip-rule="evenodd" d="M33 16.5C33 7.3873 25.6127 0 16.5 0C7.3873 0 0 7.3873 0 16.5C0 25.6127 7.3873 33 16.5 33C25.6127 33 33 25.6127 33 16.5ZM5.00032 11.248C4.98824 10.669 5.31439 10.2702 5.9063 10.1158C6.13581 10.0643 7.05387 10.0129 7.94776 10C9.30068 10 9.66307 10.0386 10.0859 10.2316C10.6898 10.5275 10.8469 10.772 11.318 12.1615C11.5233 12.7533 11.8253 13.4995 12.0065 13.8341C12.4172 14.5932 13.1662 15.6482 13.287 15.6482C13.3957 15.6482 13.4198 13.1908 13.3111 12.882C13.2628 12.7662 13.0212 12.5861 12.7555 12.4703C12.3327 12.2901 12.0548 11.917 12.0548 11.5311C12.0548 11.3252 12.683 10.6176 13.0333 10.4246C13.9514 9.9228 16.8988 9.93567 17.9014 10.4374C18.6745 10.8234 18.8195 11.3381 18.8195 13.7569C18.8195 15.7511 18.8195 15.7768 19.0611 15.6482C19.665 15.3008 20.6435 13.4609 21.4166 11.2351C21.7427 10.2573 21.9722 10.1673 24.3519 10.0772C25.4633 10.0257 26.6108 10.0386 26.9128 10.1029C28.145 10.3731 28.3141 11.4024 27.4323 13.3452C27.0095 14.3101 26.5746 14.992 24.9318 17.2435C24.6724 17.6094 24.7096 18.1078 25.0203 18.4312L26.0552 19.508C27.6497 21.1548 28 21.6823 28 22.48C28 23.0204 27.3719 23.6765 26.6592 23.8824C26.3088 23.9853 25.4874 24.0239 24.2553 23.9853C22.5642 23.9339 22.3226 23.9081 21.7186 23.6122C21.3441 23.4192 20.8609 23.0976 20.6314 22.8917C19.9549 22.2741 19.049 21.5665 18.9282 21.5665C18.8678 21.5665 18.8195 21.8238 18.8195 22.1455C18.8195 22.8788 18.5658 23.5479 18.1913 23.7795C17.7806 24.0239 15.3405 23.9725 14.35 23.6894C13.9151 23.5736 13.1299 23.2391 12.5984 22.9432C11.318 22.2484 9.5302 20.3571 8.40679 18.543C6.76395 15.8798 5.0124 12.1229 5.00032 11.248ZM12.4656 17.0506C11.6562 16.5231 10.4362 14.4388 9.80803 12.5603C9.6489 12.0596 9.19034 11.7143 8.66511 11.6999L8.14104 11.6854C7.36794 11.6726 6.7398 11.6854 6.7398 11.724C6.7398 11.9042 8.1048 14.8119 8.74502 15.9827C11.173 20.4858 13.444 22.3385 16.5364 22.3385H16.6294C16.9627 22.3385 17.2439 22.0903 17.2853 21.7595C17.3941 20.9747 17.6598 20.4472 18.1309 20.1513C18.9161 19.6366 19.6167 19.8939 21.175 21.2449C21.7065 21.708 22.3346 22.1455 22.5642 22.2098C23.1923 22.4028 26.3088 22.3771 26.3088 22.1841C26.3088 22.1069 25.5841 21.2706 24.6902 20.3571C22.4917 18.0798 22.4675 17.8868 24.1224 15.6739C25.4995 13.8212 26.1156 12.8048 26.3572 11.9428C26.3993 11.8016 26.2936 11.6597 26.1463 11.6597H24.6539H23.619C23.1653 11.6597 22.7656 11.9581 22.6366 12.3931C22.081 14.2715 20.8005 16.4073 19.8221 17.0634C18.7228 17.8096 17.7081 17.4494 17.382 16.2143C17.3095 15.9441 17.2491 14.8505 17.2491 13.8083C17.2491 12.1229 17.2249 11.9042 17.0437 11.8141C16.7901 11.7112 14.7607 11.6854 14.6641 11.7884C14.6278 11.827 14.6761 12.1486 14.7728 12.496C14.9902 13.2294 15.0144 15.2879 14.8211 16.1113C14.5553 17.2307 13.4319 17.6939 12.4656 17.0506Z" fill="white"/>
</svg>
