<svg width="1920" height="183" viewBox="0 0 1920 183" fill="none" xmlns="http://www.w3.org/2000/svg">
<g opacity="0.19">
<path d="M115.374 131.132C115.374 141.684 112.811 150.856 107.684 158.649C102.557 166.441 95.0697 172.448 85.2227 176.669C75.457 180.89 63.5755 183 49.5781 183C43.3932 183 37.3304 182.594 31.3896 181.782C25.5303 180.971 19.8743 179.794 14.4219 178.251C9.05078 176.628 3.92383 174.639 -0.958984 172.285V137.22C7.50456 140.953 16.2936 144.322 25.4082 147.325C34.5228 150.329 43.556 151.83 52.5078 151.83C58.6927 151.83 63.6569 151.019 67.4004 149.395C71.2253 147.772 73.9922 145.54 75.7012 142.699C77.4102 139.858 78.2646 136.611 78.2646 132.958C78.2646 128.494 76.7591 124.679 73.748 121.513C70.737 118.347 66.5866 115.385 61.2969 112.625C56.0885 109.865 50.1885 106.902 43.5967 103.737C39.4463 101.788 34.9297 99.4345 30.0469 96.6747C25.1641 93.8337 20.5254 90.3839 16.1309 86.3253C11.7363 82.2668 8.11491 77.356 5.2666 71.5928C2.49967 65.7485 1.11621 58.7678 1.11621 50.6507C1.11621 40.0173 3.55762 30.9261 8.44043 23.3772C13.3232 15.8283 20.2812 10.0652 29.3145 6.08782C38.429 2.02927 49.1712 0 61.541 0C70.8184 0 79.6481 1.09581 88.0303 3.28743C96.4938 5.39787 105.324 8.48237 114.52 12.5409L102.312 41.8842C94.0931 38.5562 86.7282 35.9993 80.2178 34.2136C73.7074 32.3466 67.0749 31.4132 60.3203 31.4132C55.6003 31.4132 51.5719 32.1843 48.2354 33.7265C44.8988 35.1876 42.376 37.2981 40.667 40.0579C38.958 42.7365 38.1035 45.8616 38.1035 49.4331C38.1035 53.654 39.3242 57.2255 41.7656 60.1477C44.2884 62.9887 48.0319 65.7485 52.9961 68.4271C58.0417 71.1058 64.3079 74.2309 71.7949 77.8024C80.9095 82.1045 88.6813 86.6094 95.1104 91.3174C101.621 95.9441 106.626 101.423 110.125 107.754C113.624 114.005 115.374 121.797 115.374 131.132Z" fill="url(#paint0_linear_1596_1585)"/>
<path d="M147.723 180.565V2.55689H185.564V149.395H257.952V180.565H147.723Z" fill="url(#paint1_linear_1596_1585)"/>
<path d="M289.08 180.565V2.55689H326.922V180.565H289.08Z" fill="url(#paint2_linear_1596_1585)"/>
<path d="M519.915 89.8563C519.915 109.906 516.049 126.667 508.318 140.142C500.669 153.535 489.56 163.641 474.993 170.459C460.426 177.196 442.889 180.565 422.381 180.565H371.844V2.55689H427.874C446.591 2.55689 462.827 5.8849 476.58 12.5409C490.333 19.1158 500.994 28.8969 508.562 41.8842C516.131 54.7904 519.915 70.7811 519.915 89.8563ZM480.608 90.8303C480.608 77.6806 478.655 66.8849 474.749 58.4431C470.924 49.9202 465.228 43.6294 457.659 39.5709C450.172 35.5123 440.895 33.483 429.827 33.483H409.686V149.395H425.921C444.394 149.395 458.107 144.484 467.059 134.663C476.092 124.841 480.608 110.23 480.608 90.8303Z" fill="url(#paint3_linear_1596_1585)"/>
<path d="M659.686 180.565H556.902V2.55689H659.686V33.483H594.744V72.5669H655.169V103.493H594.744V149.395H659.686V180.565Z" fill="url(#paint4_linear_1596_1585)"/>
<path d="M799.822 180.565H697.039V2.55689H799.822V33.483H734.881V72.5669H795.306V103.493H734.881V149.395H799.822V180.565Z" fill="url(#paint5_linear_1596_1585)"/>
<path d="M939.959 180.565H837.176V2.55689H939.959V33.483H875.018V72.5669H935.442V103.493H875.018V149.395H939.959V180.565Z" fill="url(#paint6_linear_1596_1585)"/>
<path d="M1097.37 131.132C1097.37 141.684 1094.81 150.856 1089.68 158.649C1084.56 166.441 1077.07 172.448 1067.22 176.669C1057.46 180.89 1045.58 183 1031.58 183C1025.39 183 1019.33 182.594 1013.39 181.782C1007.53 180.971 1001.87 179.794 996.422 178.251C991.051 176.628 985.924 174.639 981.041 172.285V137.22C989.505 140.953 998.294 144.322 1007.41 147.325C1016.52 150.329 1025.56 151.83 1034.51 151.83C1040.69 151.83 1045.66 151.019 1049.4 149.395C1053.23 147.772 1055.99 145.54 1057.7 142.699C1059.41 139.858 1060.26 136.611 1060.26 132.958C1060.26 128.494 1058.76 124.679 1055.75 121.513C1052.74 118.347 1048.59 115.385 1043.3 112.625C1038.09 109.865 1032.19 106.902 1025.6 103.737C1021.45 101.788 1016.93 99.4345 1012.05 96.6747C1007.16 93.8337 1002.53 90.3839 998.131 86.3253C993.736 82.2668 990.115 77.356 987.267 71.5928C984.5 65.7485 983.116 58.7678 983.116 50.6507C983.116 40.0173 985.558 30.9261 990.44 23.3772C995.323 15.8283 1002.28 10.0652 1011.31 6.08782C1020.43 2.02927 1031.17 0 1043.54 0C1052.82 0 1061.65 1.09581 1070.03 3.28743C1078.49 5.39787 1087.32 8.48237 1096.52 12.5409L1084.31 41.8842C1076.09 38.5562 1068.73 35.9993 1062.22 34.2136C1055.71 32.3466 1049.07 31.4132 1042.32 31.4132C1037.6 31.4132 1033.57 32.1843 1030.24 33.7265C1026.9 35.1876 1024.38 37.2981 1022.67 40.0579C1020.96 42.7365 1020.1 45.8616 1020.1 49.4331C1020.1 53.654 1021.32 57.2255 1023.77 60.1477C1026.29 62.9887 1030.03 65.7485 1035 68.4271C1040.04 71.1058 1046.31 74.2309 1053.79 77.8024C1062.91 82.1045 1070.68 86.6094 1077.11 91.3174C1083.62 95.9441 1088.63 101.423 1092.12 107.754C1095.62 114.005 1097.37 121.797 1097.37 131.132Z" fill="url(#paint7_linear_1596_1585)"/>
<path d="M1129.72 180.565V2.55689H1167.56V149.395H1239.95V180.565H1129.72Z" fill="url(#paint8_linear_1596_1585)"/>
<path d="M1271.08 180.565V2.55689H1308.92V180.565H1271.08Z" fill="url(#paint9_linear_1596_1585)"/>
<path d="M1501.92 89.8563C1501.92 109.906 1498.05 126.667 1490.32 140.142C1482.67 153.535 1471.56 163.641 1456.99 170.459C1442.43 177.196 1424.89 180.565 1404.38 180.565H1353.84V2.55689H1409.87C1428.59 2.55689 1444.83 5.8849 1458.58 12.5409C1472.33 19.1158 1482.99 28.8969 1490.56 41.8842C1498.13 54.7904 1501.92 70.7811 1501.92 89.8563ZM1462.61 90.8303C1462.61 77.6806 1460.66 66.8849 1456.75 58.4431C1452.92 49.9202 1447.23 43.6294 1439.66 39.5709C1432.17 35.5123 1422.89 33.483 1411.83 33.483H1391.69V149.395H1407.92C1426.39 149.395 1440.11 144.484 1449.06 134.663C1458.09 124.841 1462.61 110.23 1462.61 90.8303Z" fill="url(#paint10_linear_1596_1585)"/>
<path d="M1641.69 180.565H1538.9V2.55689H1641.69V33.483H1576.74V72.5669H1637.17V103.493H1576.74V149.395H1641.69V180.565Z" fill="url(#paint11_linear_1596_1585)"/>
<path d="M1781.82 180.565H1679.04V2.55689H1781.82V33.483H1716.88V72.5669H1777.31V103.493H1716.88V149.395H1781.82V180.565Z" fill="url(#paint12_linear_1596_1585)"/>
<path d="M1921.96 180.565H1819.18V2.55689H1921.96V33.483H1857.02V72.5669H1917.44V103.493H1857.02V149.395H1921.96V180.565Z" fill="url(#paint13_linear_1596_1585)"/>
</g>
<defs>
<linearGradient id="paint0_linear_1596_1585" x1="960.209" y1="0.0301969" x2="960.209" y2="182.56" gradientUnits="userSpaceOnUse">
<stop stop-color="#222525"/>
<stop offset="1" stop-color="#878787"/>
</linearGradient>
<linearGradient id="paint1_linear_1596_1585" x1="960.209" y1="0.0301969" x2="960.209" y2="182.56" gradientUnits="userSpaceOnUse">
<stop stop-color="#222525"/>
<stop offset="1" stop-color="#878787"/>
</linearGradient>
<linearGradient id="paint2_linear_1596_1585" x1="960.209" y1="0.0301969" x2="960.209" y2="182.56" gradientUnits="userSpaceOnUse">
<stop stop-color="#222525"/>
<stop offset="1" stop-color="#878787"/>
</linearGradient>
<linearGradient id="paint3_linear_1596_1585" x1="960.209" y1="0.0301969" x2="960.209" y2="182.56" gradientUnits="userSpaceOnUse">
<stop stop-color="#222525"/>
<stop offset="1" stop-color="#878787"/>
</linearGradient>
<linearGradient id="paint4_linear_1596_1585" x1="960.209" y1="0.0301969" x2="960.209" y2="182.56" gradientUnits="userSpaceOnUse">
<stop stop-color="#222525"/>
<stop offset="1" stop-color="#878787"/>
</linearGradient>
<linearGradient id="paint5_linear_1596_1585" x1="960.209" y1="0.0301969" x2="960.209" y2="182.56" gradientUnits="userSpaceOnUse">
<stop stop-color="#222525"/>
<stop offset="1" stop-color="#878787"/>
</linearGradient>
<linearGradient id="paint6_linear_1596_1585" x1="960.209" y1="0.0301969" x2="960.209" y2="182.56" gradientUnits="userSpaceOnUse">
<stop stop-color="#222525"/>
<stop offset="1" stop-color="#878787"/>
</linearGradient>
<linearGradient id="paint7_linear_1596_1585" x1="960.209" y1="0.0301969" x2="960.209" y2="182.56" gradientUnits="userSpaceOnUse">
<stop stop-color="#222525"/>
<stop offset="1" stop-color="#878787"/>
</linearGradient>
<linearGradient id="paint8_linear_1596_1585" x1="960.209" y1="0.0301969" x2="960.209" y2="182.56" gradientUnits="userSpaceOnUse">
<stop stop-color="#222525"/>
<stop offset="1" stop-color="#878787"/>
</linearGradient>
<linearGradient id="paint9_linear_1596_1585" x1="960.209" y1="0.0301969" x2="960.209" y2="182.56" gradientUnits="userSpaceOnUse">
<stop stop-color="#222525"/>
<stop offset="1" stop-color="#878787"/>
</linearGradient>
<linearGradient id="paint10_linear_1596_1585" x1="960.209" y1="0.0301969" x2="960.209" y2="182.56" gradientUnits="userSpaceOnUse">
<stop stop-color="#222525"/>
<stop offset="1" stop-color="#878787"/>
</linearGradient>
<linearGradient id="paint11_linear_1596_1585" x1="960.209" y1="0.0301969" x2="960.209" y2="182.56" gradientUnits="userSpaceOnUse">
<stop stop-color="#222525"/>
<stop offset="1" stop-color="#878787"/>
</linearGradient>
<linearGradient id="paint12_linear_1596_1585" x1="960.209" y1="0.0301969" x2="960.209" y2="182.56" gradientUnits="userSpaceOnUse">
<stop stop-color="#222525"/>
<stop offset="1" stop-color="#878787"/>
</linearGradient>
<linearGradient id="paint13_linear_1596_1585" x1="960.209" y1="0.0301969" x2="960.209" y2="182.56" gradientUnits="userSpaceOnUse">
<stop stop-color="#222525"/>
<stop offset="1" stop-color="#878787"/>
</linearGradient>
</defs>
</svg>
