<svg width="26" height="26" viewBox="0 0 26 26" fill="none" xmlns="http://www.w3.org/2000/svg">
<g id="Frame 375">
<g id="Group 53">
<g id="Group 52">
<rect id="Rectangle 58" x="4" y="3" width="18" height="19.125" rx="3.42857" fill="#D2D2D2"/>
</g>
<path id="Vector" d="M18.0558 13.9454C17.7665 13.7242 17.6263 13.3642 17.6263 13C17.6263 12.6376 17.7627 12.2752 18.0516 12.0564L18.8856 11.425C19.0013 11.3375 19.0334 11.1687 18.9627 11.0437L17.7291 8.96875C17.652 8.83125 17.4913 8.7875 17.35 8.83125L16.3594 9.21826C16.0202 9.35082 15.6436 9.29301 15.3277 9.11164C14.9986 8.9227 14.7397 8.61223 14.685 8.23674L14.5421 7.25625C14.5164 7.10625 14.3879 7 14.2337 7H11.7663C11.6121 7 11.49 7.10625 11.4643 7.25625L11.3216 8.23572C11.2668 8.61185 11.0047 8.92482 10.6753 9.11459C10.3602 9.29617 9.98682 9.35104 9.64807 9.21868L8.65646 8.83125C8.5151 8.78125 8.35447 8.83125 8.27736 8.96875L7.05012 11.0437C6.97301 11.175 6.99872 11.3375 7.12722 11.425L7.96035 12.0557C8.24985 12.2749 8.37374 12.6369 8.37374 13C8.37374 13.3624 8.23734 13.7248 7.9484 13.9436L7.11437 14.575C6.99872 14.6625 6.96659 14.8312 7.03727 14.9562L8.27094 17.0313C8.34804 17.1688 8.50867 17.2125 8.65003 17.1688L9.64056 16.7817C9.97984 16.6492 10.3564 16.707 10.6723 16.8884C11.0014 17.0773 11.2603 17.3878 11.315 17.7633L11.4579 18.7438C11.49 18.8938 11.6121 19 11.7663 19H14.2337C14.3879 19 14.5164 18.8938 14.5357 18.7438L14.679 17.76C14.7334 17.3865 14.993 17.0771 15.3208 16.89C15.6386 16.7087 16.0155 16.6499 16.3563 16.783L17.3435 17.1688C17.4849 17.2188 17.6455 17.1688 17.7226 17.0313L18.9563 14.9562C19.0334 14.8187 19.0013 14.6625 18.8792 14.575L18.0558 13.9454ZM13 15.25C11.7278 15.25 10.6869 14.2375 10.6869 13C10.6869 11.7625 11.7278 10.75 13 10.75C14.2722 10.75 15.3131 11.7625 15.3131 13C15.3131 14.2375 14.2722 15.25 13 15.25Z" fill="black"/>
</g>
</g>
</svg>
