<svg width="26" height="26" viewBox="0 0 26 26" fill="none" xmlns="http://www.w3.org/2000/svg">
<path d="M16.9021 4.47759C15.9302 4.68123 14.7916 5.56984 14.2918 6.50473C13.1348 8.67072 13.9863 11.3921 16.1338 12.401C16.7077 12.6695 16.8466 12.688 17.6889 12.688C18.5312 12.688 18.6701 12.6695 19.244 12.401C21.845 11.1792 22.4189 7.63401 20.3547 5.54207C19.6605 4.83859 18.8737 4.4961 17.8925 4.45907C17.476 4.44056 17.0317 4.44982 16.9021 4.47759ZM18.4294 6.43994C19.2995 6.83796 19.7253 7.54145 19.7253 8.57816C19.7253 9.34644 19.5494 9.79074 19.0681 10.2813C17.8277 11.5309 15.8284 10.6794 15.634 8.81883C15.4581 7.13417 17.0317 5.79199 18.4294 6.43994Z" fill="#D2D2D2"/>
<path d="M7.18202 5.86626C6.60813 5.98659 5.7658 6.46792 5.29372 6.94C3.95155 8.28217 3.65535 10.3371 4.57173 12.0403C4.94198 12.7437 5.69175 13.4472 6.41374 13.7897C6.98764 14.0581 7.12648 14.0767 7.96881 14.0767C8.81114 14.0767 8.94999 14.0581 9.52388 13.7897C12.1249 12.5679 12.6988 9.02268 10.6346 6.93074C9.94968 6.23651 9.13512 5.87551 8.15394 5.83849C7.74666 5.82923 7.31161 5.83849 7.18202 5.86626Z" fill="#D2D2D2"/>
<path d="M16.2981 13.8266C14.7153 14.1599 13.4657 14.6967 12.5678 15.4187C11.9384 15.9278 11.8458 15.9648 11.4385 15.7519C11.2904 15.6779 10.7165 15.502 10.1704 15.3724C9.28179 15.1595 9.04112 15.1318 7.9211 15.1688C6.51413 15.2151 5.65329 15.4187 4.53327 15.9463C2.90415 16.7146 1.57123 18.1493 1.11767 19.6119C0.969568 20.0654 0.969568 20.1858 1.07139 20.5745C1.22875 21.1114 1.63603 21.602 2.13587 21.8241C2.47836 21.9815 2.88564 22 8.19879 22C13.549 22 13.91 21.9815 14.2617 21.8241C14.6875 21.6297 15.0855 21.2317 15.2244 20.8615L15.3262 20.6115H19.2324C23.1478 20.6115 23.1478 20.6115 23.6107 20.3894C24.4345 20.0099 24.9065 19.2509 24.8418 18.4363C24.7862 17.7698 24.3604 16.9923 23.6292 16.2055C22.1111 14.5764 20.084 13.7526 17.6403 13.7711C17.0016 13.7803 16.3999 13.7989 16.2981 13.8266ZM19.362 15.7982C20.3524 16.0574 21.278 16.5202 21.9075 17.0849C22.4999 17.6125 23.0553 18.4178 22.972 18.6214C22.9257 18.7418 22.3888 18.7603 18.9177 18.7603H14.9097L14.706 18.3993C14.5949 18.2049 14.2895 17.8069 14.0211 17.5199L13.549 17.0016L13.7619 16.8257C14.1506 16.5017 15.2614 15.9926 15.9741 15.8075C16.9368 15.5576 18.3808 15.5483 19.362 15.7982Z" fill="#D2D2D2"/>
</svg>
